<svg width="290" height="75" viewBox="0 0 290 75" fill="none" xmlns="http://www.w3.org/2000/svg">
<g clip-path="url(#clip0)">
<path d="M66.4132 19.8571C63.6181 17.0446 59.5087 15.635 54.0849 15.6284L26.0342 15.5685L25.9544 64.8272H21.9614L22.0712 10.163H27.5915C27.7146 10.7279 28.0424 11.2274 28.5119 11.5655C28.9813 11.9036 29.5593 12.0564 30.1347 11.9946C30.71 11.9327 31.2422 11.6606 31.6289 11.2304C32.0156 10.8003 32.2295 10.2425 32.2295 9.66429C32.2295 9.08611 32.0156 8.52833 31.6289 8.09818C31.2422 7.66803 30.71 7.39586 30.1347 7.334C29.5593 7.27213 28.9813 7.42494 28.5119 7.76304C28.0424 8.10114 27.7146 8.60068 27.5915 9.16562H22.1011V4.64767C22.6693 4.52461 23.1719 4.19601 23.5121 3.72508C23.8524 3.25415 24.0064 2.67414 23.9445 2.09661C23.8825 1.51909 23.6091 0.984842 23.1766 0.596628C22.7442 0.208414 22.1834 -0.00634766 21.602 -0.00634766C21.0207 -0.00634766 20.4598 0.208414 20.0274 0.596628C19.595 0.984842 19.3215 1.51909 19.2596 2.09661C19.1976 2.67414 19.3516 3.25415 19.6919 3.72508C20.0322 4.19601 20.5347 4.52461 21.1029 4.64767L20.9631 64.8272H17.659L17.7288 29.7507C18.2943 29.6277 18.7943 29.3002 19.1327 28.8312C19.4711 28.3622 19.624 27.7847 19.5621 27.2099C19.5002 26.635 19.2278 26.1033 18.7972 25.717C18.3667 25.3306 17.8084 25.1169 17.2297 25.1169C16.651 25.1169 16.0927 25.3306 15.6622 25.717C15.2316 26.1033 14.9592 26.635 14.8973 27.2099C14.8354 27.7847 14.9883 28.3622 15.3267 28.8312C15.6651 29.3002 16.1651 29.6277 16.7306 29.7507L16.6607 64.8272H9.51328V41.7687H11.7993C11.9224 42.3363 12.2513 42.8384 12.7227 43.1784C13.194 43.5184 13.7746 43.6722 14.3526 43.6103C14.9307 43.5485 15.4654 43.2752 15.854 42.8432C16.2425 42.4112 16.4575 41.8508 16.4575 41.27C16.4575 40.6892 16.2425 40.1289 15.854 39.6968C15.4654 39.2648 14.9307 38.9916 14.3526 38.9297C13.7746 38.8678 13.194 39.0216 12.7227 39.3616C12.2513 39.7016 11.9224 40.2037 11.7993 40.7713H9.55321V20.655C10.1241 20.5319 10.6292 20.2022 10.9714 19.7293C11.3135 19.2565 11.4685 18.6739 11.4066 18.0937C11.3446 17.5136 11.0701 16.9768 10.6358 16.5867C10.2015 16.1966 9.6381 15.9808 9.05409 15.9808C8.47009 15.9808 7.90672 16.1966 7.47241 16.5867C7.03811 16.9768 6.76356 17.5136 6.7016 18.0937C6.63965 18.6739 6.79467 19.2565 7.13683 19.7293C7.47899 20.2022 7.98411 20.5319 8.55497 20.655L8.51504 64.8272H4.64185C4.51872 64.2622 4.19093 63.7627 3.72148 63.4246C3.25204 63.0865 2.67407 62.9337 2.09869 62.9956C1.5233 63.0574 0.991113 63.3296 0.604418 63.7598C0.217722 64.1899 0.0038147 64.7477 0.0038147 65.3259C0.0038147 65.904 0.217722 66.4618 0.604418 66.892C0.991113 67.3221 1.5233 67.5943 2.09869 67.6562C2.67407 67.718 3.25204 67.5652 3.72148 67.2271C4.19093 66.889 4.51872 66.3895 4.64185 65.8245H11.8092V70.3225C11.2357 70.4457 10.728 70.7765 10.384 71.2512C10.0399 71.726 9.88387 72.3111 9.94584 72.894C10.0078 73.4768 10.2834 74.0161 10.7196 74.4081C11.1558 74.8 11.7217 75.0169 12.3084 75.0169C12.895 75.0169 13.4609 74.8 13.8971 74.4081C14.3333 74.0161 14.6089 73.4768 14.6709 72.894C14.7329 72.3111 14.5768 71.726 14.2328 71.2512C13.8887 70.7765 13.3811 70.4457 12.8075 70.3225V65.8245H27.9209H53.9352C59.3523 65.8245 63.4684 64.4316 66.2834 61.6457C69.0985 58.8598 70.5093 54.7541 70.516 49.3285V32.0845C70.5826 26.7454 69.215 22.6696 66.4132 19.8571ZM29.9473 8.37772C30.206 8.37772 30.4588 8.45435 30.6739 8.59791C30.8889 8.74147 31.0565 8.94552 31.1555 9.18426C31.2545 9.42299 31.2804 9.68569 31.2299 9.93913C31.1795 10.1926 31.0549 10.4254 30.872 10.6081C30.6891 10.7908 30.4561 10.9152 30.2025 10.9656C29.9488 11.0161 29.6859 10.9902 29.4469 10.8913C29.208 10.7924 29.0037 10.625 28.86 10.4101C28.7163 10.1952 28.6396 9.94264 28.6396 9.68424C28.6396 9.33773 28.7774 9.00541 29.0227 8.76039C29.2679 8.51537 29.6005 8.37772 29.9473 8.37772ZM14.1352 39.8937C14.3934 39.8956 14.6452 39.9739 14.8589 40.1187C15.0727 40.2635 15.2387 40.4682 15.3362 40.7071C15.4336 40.946 15.4581 41.2084 15.4065 41.4611C15.3549 41.7139 15.2296 41.9458 15.0463 42.1275C14.8631 42.3092 14.63 42.4327 14.3766 42.4823C14.1233 42.5319 13.8608 42.5054 13.6225 42.4063C13.3841 42.3071 13.1804 42.1396 13.0372 41.925C12.8939 41.7104 12.8175 41.4582 12.8175 41.2002C12.8227 40.8536 12.9635 40.5228 13.2098 40.2786C13.456 40.0344 13.7882 39.8962 14.1352 39.8937ZM2.34589 66.6124C2.08726 66.6105 1.83503 66.5319 1.62109 66.3867C1.40715 66.2415 1.2411 66.0362 1.14396 65.7967C1.04681 65.5572 1.02293 65.2943 1.07532 65.0413C1.12772 64.7882 1.25404 64.5564 1.43831 64.3751C1.62258 64.1938 1.85653 64.0711 2.11058 64.0226C2.36462 63.9742 2.62735 64.002 2.86553 64.1027C3.10372 64.2034 3.30667 64.3724 3.44872 64.5884C3.59077 64.8043 3.66554 65.0575 3.66357 65.3159C3.66227 65.4875 3.62715 65.6571 3.56022 65.8151C3.49329 65.9731 3.39587 66.1164 3.27351 66.2368C3.15115 66.3572 3.00625 66.4524 2.84709 66.5168C2.68793 66.5813 2.51762 66.6137 2.34589 66.6124ZM7.7963 18.2813C7.7963 18.0229 7.873 17.7703 8.01669 17.5555C8.16038 17.3406 8.36462 17.1731 8.60357 17.0742C8.84252 16.9754 9.10545 16.9495 9.35912 16.9999C9.61279 17.0503 9.8458 17.1747 10.0287 17.3575C10.2116 17.5402 10.3361 17.773 10.3866 18.0264C10.437 18.2799 10.4111 18.5426 10.3122 18.7813C10.2132 19.02 10.0456 19.2241 9.83052 19.3676C9.61547 19.5112 9.36264 19.5878 9.104 19.5878C8.75718 19.5878 8.42456 19.4502 8.17932 19.2052C7.93408 18.9601 7.7963 18.6278 7.7963 18.2813ZM13.6261 72.6463C13.626 72.9052 13.5491 73.1582 13.405 73.3732C13.2608 73.5883 13.056 73.7557 12.8165 73.8543C12.5769 73.9529 12.3135 73.9782 12.0595 73.927C11.8056 73.8757 11.5726 73.7503 11.3901 73.5666C11.2076 73.3829 11.0839 73.1492 11.0346 72.8951C10.9852 72.641 11.0126 72.378 11.1131 72.1394C11.2136 71.9009 11.3828 71.6975 11.5991 71.5551C11.8155 71.4128 12.0693 71.3378 12.3283 71.3398C12.6734 71.3425 13.0035 71.4813 13.2466 71.726C13.4897 71.9707 13.6261 72.3016 13.6261 72.6463ZM15.9719 27.4369C15.9719 27.1781 16.0489 26.9251 16.193 26.71C16.3372 26.4949 16.542 26.3275 16.7815 26.2289C17.0211 26.1303 17.2845 26.105 17.5384 26.1563C17.7924 26.2075 18.0254 26.3329 18.2078 26.5166C18.3903 26.7004 18.5141 26.9341 18.5634 27.1882C18.6127 27.4423 18.5854 27.7053 18.4849 27.9438C18.3844 28.1824 18.2152 28.3857 17.9989 28.5281C17.7825 28.6704 17.5287 28.7454 17.2696 28.7434C16.9246 28.7408 16.5945 28.602 16.3514 28.3572C16.1083 28.1125 15.9719 27.7817 15.9719 27.4369ZM20.3043 2.35378C20.3043 2.09538 20.381 1.84278 20.5247 1.62792C20.6684 1.41307 20.8726 1.24561 21.1116 1.14672C21.3505 1.04783 21.6135 1.02196 21.8671 1.07237C22.1208 1.12279 22.3538 1.24722 22.5367 1.42994C22.7196 1.61266 22.8441 1.84546 22.8946 2.0989C22.945 2.35234 22.9191 2.61503 22.8202 2.85377C22.7212 3.0925 22.5536 3.29655 22.3385 3.44011C22.1235 3.58367 21.8706 3.6603 21.612 3.6603C21.2652 3.6603 20.9326 3.52265 20.6873 3.27763C20.4421 3.03261 20.3043 2.70029 20.3043 2.35378ZM57.6187 49.4083C57.6187 53.7235 55.4558 55.8777 51.1301 55.8711L38.9315 55.8511V25.6616H51.16C55.4725 25.6616 57.6253 27.8225 57.6187 32.1443V49.4083Z" fill="#C4C4C2"/>
<path d="M112.253 65.336C103.89 66.2288 95.487 66.6915 87.0769 66.7223C85.6349 66.8151 84.1896 66.5991 82.838 66.0885C81.4864 65.578 80.2595 64.7848 79.2396 63.7621C78.2198 62.7394 77.4304 61.5107 76.9244 60.1584C76.4184 58.8061 76.2075 57.3614 76.3058 55.9211V38.6671C76.3058 35.0766 77.3307 32.2641 79.3804 30.2296C81.3769 28.2349 84.2418 27.2375 87.8455 27.2375H102.23C105.824 27.2375 108.639 28.2648 110.675 30.3193C112.672 32.314 113.67 35.1764 113.67 38.7668V52.0614H88.8537V54.8539C88.8441 55.187 88.9026 55.5186 89.0255 55.8284C89.1484 56.1382 89.3331 56.4198 89.5685 56.6559C89.8039 56.892 90.085 57.0777 90.3946 57.2017C90.7042 57.3258 91.0359 57.3854 91.3693 57.3772C96.121 57.3772 103.075 57.0447 112.233 56.3798L112.253 65.336ZM91.8385 36.1837C91.4481 36.1289 91.0504 36.1654 90.6766 36.2904C90.3027 36.4154 89.9631 36.6254 89.6843 36.9038C89.4056 37.1823 89.1954 37.5217 89.0703 37.8952C88.9453 38.2686 88.9087 38.666 88.9635 39.056V43.0454H101.192V39.056C101.247 38.666 101.21 38.2686 101.085 37.8952C100.96 37.5217 100.75 37.1823 100.471 36.9038C100.192 36.6254 99.8528 36.4154 99.479 36.2904C99.1052 36.1654 98.7074 36.1289 98.3171 36.1837H91.8385Z" fill="#C4C4C2"/>
<path d="M145.065 28.0253H158.371L143.907 66.1137H129.522L115.207 27.9255H128.514L136.759 53.8564L145.065 28.0253Z" fill="#C4C4C2"/>
<path d="M200.737 65.5153C190.029 66.4528 181.155 66.9149 174.114 66.9016C169.455 66.9016 166.005 65.7912 163.762 63.5705C161.566 61.3663 160.468 57.9056 160.478 53.2181L160.528 30.2194C160.528 25.1861 161.672 21.5292 163.962 19.2486C166.251 16.9681 169.911 15.8377 174.942 15.8577L200.837 15.9075V25.9707H177.817C174.942 25.9707 173.495 27.3969 173.495 30.2693L173.445 53.2679C173.423 53.7501 173.5 54.2316 173.672 54.6828C173.844 55.1339 174.106 55.5451 174.443 55.8909C174.765 56.2181 175.151 56.4755 175.577 56.6471C176.003 56.8187 176.46 56.9008 176.919 56.8883H180.233C181.431 56.8883 182.679 56.8384 183.976 56.7885L187.89 56.6589C189.207 56.6589 190.884 56.5193 193.001 56.3796L200.807 55.8909L200.737 65.5153Z" fill="#C4C4C2"/>
<path d="M244.64 55.5421C244.64 59.1325 243.642 61.945 241.565 63.9796C239.489 66.0141 236.704 66.9716 233.11 66.9716H216.559C212.965 66.9716 210.15 65.9742 208.114 63.8998C206.078 61.8253 205.119 59.0427 205.119 55.4523V38.9164C205.119 35.326 206.118 32.5135 208.194 30.4789C210.27 28.4443 213.055 27.437 216.649 27.4869H233.2C236.794 27.4869 239.609 28.4842 241.645 30.5587C243.681 32.6331 244.69 35.4157 244.64 39.0062V55.5421ZM232.082 40.0633C232.138 39.6726 232.103 39.274 231.979 38.8992C231.855 38.5245 231.645 38.1838 231.366 37.9041C231.087 37.6244 230.746 37.4135 230.372 37.288C229.997 37.1625 229.598 37.1259 229.207 37.181H220.582C220.191 37.1245 219.792 37.1597 219.417 37.2839C219.042 37.4082 218.701 37.6179 218.421 37.8966C218.141 38.1753 217.93 38.5153 217.804 38.8896C217.679 39.264 217.642 39.6624 217.697 40.0534V54.425C217.639 54.8152 217.672 55.2137 217.795 55.5886C217.919 55.9635 218.127 56.3045 218.406 56.5844C218.684 56.8644 219.024 57.0755 219.398 57.201C219.773 57.3265 220.171 57.3629 220.562 57.3074H229.197C229.588 57.3639 229.987 57.3286 230.362 57.2044C230.737 57.0802 231.078 56.8705 231.358 56.5918C231.638 56.3131 231.849 55.9731 231.975 55.5987C232.1 55.2244 232.137 54.826 232.082 54.435V40.0633Z" fill="#C4C4C2"/>
<path d="M272.371 37.9887C269.44 38.0436 266.531 38.5206 263.736 39.4049L263.676 66.3331H251.088L251.168 28.2447H262.319L263.027 31.8351C265.182 30.4099 267.537 29.314 270.015 28.5838C271.956 27.9749 273.971 27.6393 276.005 27.5864H279.249C280.691 27.4936 282.136 27.7096 283.488 28.2201C284.839 28.7307 286.066 29.5238 287.086 30.5466C288.106 31.5693 288.895 32.798 289.401 34.1503C289.907 35.5026 290.118 36.9473 290.02 38.3876L289.96 66.4228H277.372L277.422 40.5518C277.429 40.2195 277.368 39.8891 277.245 39.5806C277.121 39.2721 276.936 38.9917 276.701 38.7561C276.466 38.5206 276.186 38.3348 275.878 38.2098C275.57 38.0848 275.239 38.0231 274.907 38.0286L272.371 37.9887Z" fill="#C4C4C2"/>
</g>
<defs>
<clipPath id="clip0">
<rect width="290" height="75" fill="white"/>
</clipPath>
</defs>
</svg>
